<svg version="1.1" 
	 xmlns="http://www.w3.org/2000/svg" xmlns:xlink="http://www.w3.org/1999/xlink" x="0px" y="0px" viewBox="0 0 1190.4 841.68"
	 style="enable-background:new 0 0 1190.4 841.68;" xml:space="preserve">
<style type="text/css">
	.st0{fill:none;stroke:#181716;stroke-width:0.5;stroke-miterlimit:10;}
	.st1{opacity:0.6;fill:#82BE32;}
	.st2{opacity:0.8;fill:#82BE32;}
	.st3{fill:#82BE32;}
</style>
		<g id="Treppenhaus9b-liniear">
			<g>
				<g>
					<path id="_x39_b-104" class="st0" d="M401.52,393.53v-46.27 M383.3,400.2v-46.27 M491.14,471.63v-46.27 M365.58,526.41v-46.27
						 M144.54,420.78V374.5 M363.22,340.75v-46.27 M403.21,366.19v-46.27 M375.54,376.32v-46.27 M375.54,330.04l25.98,17.21
						l-18.22,6.67l107.84,71.44l-125.56,54.78L144.54,374.5l218.68-80.02l39.99,25.44L375.54,330.04 M401.52,393.53l-25.98-17.21
						l27.67-10.13l-39.99-25.44l-218.68,80.02l221.04,105.63l125.56-54.78L383.3,400.2L401.52,393.53"/>
				</g>
				<g>
					<path id="_x39_b-103" class="st0" d="M401.52,439.8v-46.27 M383.3,446.47V400.2 M491.14,517.91v-46.27 M365.58,572.68v-46.27
						 M144.54,467.05v-46.27 M363.22,387.03v-46.27 M403.21,412.47v-46.27 M375.54,422.59v-46.27 M375.54,376.32l25.98,17.21
						l-18.22,6.67l107.84,71.44l-125.56,54.78L144.54,420.78l218.68-80.02l39.99,25.44L375.54,376.32 M403.21,412.47l-39.99-25.44
						l-218.68,80.02l221.04,105.63l125.56-54.78L383.3,446.47l18.22-6.67"/>
				</g>
				<g>
					<path id="_x39_b-102" class="st0" d="M401.52,491.45V439.8 M383.3,498.11v-51.64 M491.14,569.55v-51.64 M365.58,624.33v-51.64
						 M144.54,518.7v-51.64 M363.22,438.67v-51.64 M403.21,464.11v-51.64 M375.54,474.24v-51.64 M375.54,422.59l25.98,17.21
						l-18.22,6.67l107.84,71.44l-125.56,54.78L144.54,467.05l218.68-80.02l39.99,25.44L375.54,422.59 M401.52,491.45l-25.98-17.21
						l27.67-10.13l-39.99-25.44L144.54,518.7l221.04,105.63l125.56-54.78L383.3,498.11L401.52,491.45"/>
				</g>
			</g>
		</g>
		<g id="Treppenhaus9b_1_">
			<g id="_x39_b-102_1_">
				<polygon class="st1" points="144.54,467.05 363.22,387.03 403.21,412.47 375.54,422.59 401.52,439.8 383.3,446.47 
					491.14,517.91 365.58,572.68 				"/>
				<polygon class="st2" points="144.54,467.05 365.58,572.68 365.58,624.33 144.54,518.7 				"/>
				<polygon class="st3" points="365.58,572.68 491.14,517.91 491.14,569.55 365.58,624.33 				"/>
				<polygon class="st3" points="375.54,422.59 403.21,412.47 403.21,459.66 383.3,446.47 401.52,439.8 				"/>
			</g>
			<g id="_x39_b-103_2_">
				<polygon class="st1" points="144.54,420.78 363.22,340.75 403.21,366.19 375.54,376.32 401.52,393.53 383.3,400.2 
					491.14,471.63 365.58,526.41 				"/>
				<polygon class="st2" points="144.54,420.78 144.54,467.05 365.58,572.68 365.58,526.41 				"/>
				<polygon class="st3" points="365.58,526.41 491.14,471.63 491.14,517.91 365.58,572.68 				"/>
				<polygon class="st3" points="403.21,412.47 401.52,411.39 401.52,412.26 383.92,400.2 401.52,393.53 375.54,376.32 
					403.21,366.19 				"/>
			</g>
			<g id="_x39_b-104_1_">
				<g>
					<polygon class="st1" points="144.54,374.5 363.22,294.48 403.21,319.92 375.54,330.04 401.52,347.25 383.3,353.92 
						491.14,425.36 365.58,480.13 					"/>
					<polygon class="st2" points="144.54,374.5 365.58,480.13 365.58,526.41 144.54,420.78 					"/>
					<polygon class="st3" points="365.58,480.13 491.14,425.36 491.14,471.63 365.58,526.41 					"/>
					<polygon class="st3" points="403.21,319.92 375.54,330.04 401.52,347.25 383.3,353.92 403.21,366.19 					"/>
				</g>
			</g>
		</g>
</svg>
